<?xml version="1.0" encoding="UTF-8"?>
<svg version="1.1" xmlns="http://www.w3.org/2000/svg" width="1024" height="1024">
<path d="M0 0 C337.92 0 675.84 0 1024 0 C1024 337.92 1024 675.84 1024 1024 C686.08 1024 348.16 1024 0 1024 C0 686.08 0 348.16 0 0 Z " fill="#FEFEFE" transform="translate(0,0)"/>
<path d="M0 0 C6.04828045 3.32834368 10.88384988 8.60480511 15.83056641 13.34472656 C18.27324903 15.66104965 20.82061946 17.85050384 23.3671875 20.05078125 C25.6491529 22.04406428 27.88478574 24.08493027 30.125 26.125 C33.52333552 29.19746773 36.98840523 32.13442622 40.5625 35 C46.32691228 39.66058865 51.70101953 44.68779281 57.10546875 49.75390625 C61.7764332 54.13116714 66.60997541 58.3014289 71.484375 62.44921875 C78.32768479 68.28018213 85.05233217 74.20408334 91.65625 80.3046875 C96.17548847 84.46504527 100.81428609 88.47685535 105.4921875 92.45703125 C112.33369707 98.2844906 119.05502108 104.20656731 125.65625 110.3046875 C130.1512427 114.4427249 134.76103666 118.43725687 139.421875 122.38671875 C146.25010888 128.18453115 152.93307023 134.09409526 159.4609375 140.22924805 C163.09624 143.64305024 166.7912548 146.94428275 170.6640625 150.08984375 C176.36007199 155.8263462 176.78261124 159.89105596 176.85461426 167.92684937 C176.84683812 169.30914539 176.83864551 170.69143912 176.83007812 172.07373047 C176.8355024 173.53945612 176.84262678 175.00517631 176.85131836 176.47088623 C176.86952179 180.44215233 176.86249586 184.41300177 176.84980202 188.38427496 C176.83965498 192.54722029 176.84907278 196.71013062 176.85534668 200.87307739 C176.86261976 207.86548241 176.85304605 214.85771833 176.83398438 221.85009766 C176.81223322 229.92201084 176.81925544 237.99351957 176.84129 246.06542289 C176.85947408 253.00577394 176.86198715 259.94600359 176.85153532 266.88637078 C176.84531468 271.02703544 176.84442484 275.16751039 176.85768127 279.30816269 C176.8692825 283.20386054 176.86113689 287.09904013 176.83810425 290.99468231 C176.83283909 292.42004412 176.83429322 293.84544993 176.84315491 295.27079391 C176.89397253 304.27879217 176.5624145 310.86882205 170.4453125 317.89453125 C169.78273438 318.44496094 169.12015625 318.99539063 168.4375 319.5625 C167.25220703 320.55636719 167.25220703 320.55636719 166.04296875 321.5703125 C161.75529038 324.99309438 157.45108278 328.39260776 153.12109375 331.76171875 C149.13984255 334.86971651 145.22394643 338.05487347 141.3125 341.25 C136.35032876 345.30001178 131.36080459 349.30785745 126.3125 353.25 C118.55813103 359.30913545 110.93581935 365.5273288 103.3125 371.75 C95.12772419 378.43097011 86.9284627 385.0836976 78.60107422 391.58642578 C74.12769085 395.08793972 69.71364997 398.65825692 65.3125 402.25 C60.35011852 406.29975959 55.36081033 410.30785296 50.3125 414.25 C42.55813103 420.30913545 34.93581935 426.5273288 27.3125 432.75 C19.12772419 439.43097011 10.9284627 446.0836976 2.60107422 452.58642578 C-1.87230915 456.08793972 -6.28635003 459.65825692 -10.6875 463.25 C-16.21089685 467.75759973 -21.77934436 472.19842642 -27.3984375 476.5859375 C-31.87186708 480.08776247 -36.28617202 483.65811164 -40.6875 487.25 C-46.21089685 491.75759973 -51.77934436 496.19842642 -57.3984375 500.5859375 C-61.87186975 504.08776455 -66.28607554 507.65822679 -70.6875 511.25 C-77.38911973 516.71647599 -84.15835113 522.08844062 -90.97412109 527.41162109 C-93.86072874 529.66644912 -96.74337519 531.92630913 -99.625 534.1875 C-100.19718262 534.63593262 -100.76936523 535.08436523 -101.35888672 535.54638672 C-104.43928515 537.96540802 -107.50390605 540.40213825 -110.55078125 542.86328125 C-132.30048612 560.42637209 -132.30048612 560.42637209 -140.6875 559.75 C-147.32729332 557.83916921 -151.56977308 553.15296817 -156.2265625 548.28125 C-158.4197881 546.02536082 -160.66446137 543.97003832 -163.0625 541.9375 C-168.53945747 537.22245798 -172.36549518 532.81937232 -172.95314884 525.39283276 C-172.96039699 524.1025734 -172.96764513 522.81231405 -172.97511292 521.48295593 C-172.98176073 520.76153957 -172.98840854 520.0401232 -172.99525779 519.29684573 C-173.01490699 516.88495197 -173.02032339 514.47324412 -173.02563477 512.0612793 C-173.03653296 510.32969683 -173.048205 508.59811908 -173.06059265 506.86654663 C-173.09107346 502.16605216 -173.10810963 497.46560661 -173.12080884 492.76503348 C-173.12889864 489.82698371 -173.13907932 486.88894793 -173.14982414 483.95090675 C-173.18253404 474.75439951 -173.20643861 465.55792634 -173.218638 456.36136883 C-173.23289538 445.75235868 -173.27678099 435.14401348 -173.34613949 424.53522366 C-173.39793405 416.32953619 -173.42281214 408.12403778 -173.42746013 399.91818935 C-173.43085669 395.01940799 -173.44569028 390.12129952 -173.48874092 385.22269249 C-173.52853921 380.61360485 -173.53487711 376.00565852 -173.51584053 371.39645004 C-173.51457608 369.70819812 -173.52521663 368.01988736 -173.54885483 366.33180046 C-173.73800274 352.00240005 -173.73800274 352.00240005 -169.36216736 346.88069153 C-167.54331875 345.20901203 -167.54331875 345.20901203 -165.6875 343.75 C-165.05279061 343.19358165 -164.41808123 342.6371633 -163.76413822 342.06388378 C-161.97118938 340.49892192 -160.12433542 339.02877845 -158.25 337.5625 C-156.83704955 336.43643633 -155.42429475 335.31012712 -154.01171875 334.18359375 C-153.2954834 333.61624512 -152.57924805 333.04889648 -151.84130859 332.46435547 C-149.06388651 330.25362572 -146.31492432 328.00918271 -143.56640625 325.76269531 C-137.44871713 320.76300493 -131.27640783 315.84255323 -125.04638672 310.98388672 C-120.36280645 307.31554485 -115.76945552 303.54419151 -111.1875 299.75 C-105.4943908 295.03569265 -99.74987184 290.40440349 -93.92138672 285.85888672 C-86.75765673 280.2621589 -79.72968499 274.49830986 -72.6875 268.75 C-64.52791034 262.08958853 -56.35216345 255.46139273 -48.04638672 248.98388672 C-42.63156741 244.74281317 -37.33804111 240.3596803 -32.04150391 235.97241211 C-25.35109645 230.44305474 -18.54249246 225.07321126 -11.6875 219.75 C-15.49443386 215.84231552 -19.48672227 212.23997938 -23.625 208.6875 C-24.60799072 207.83986084 -24.60799072 207.83986084 -25.61083984 206.97509766 C-27.63455695 205.23125115 -29.66078908 203.49036555 -31.6875 201.75 C-32.89975315 200.70704702 -34.11199326 199.66407889 -35.32421875 198.62109375 C-40.94765364 193.78803866 -46.58911264 188.97662778 -52.25 184.1875 C-52.77384277 183.74398193 -53.29768555 183.30046387 -53.83740234 182.84350586 C-56.66884479 180.44857383 -59.50795312 178.06330446 -62.35546875 175.6875 C-62.95480225 175.18549072 -63.55413574 174.68348145 -64.17163086 174.16625977 C-65.32503568 173.20038488 -66.48070527 172.23720629 -67.63891602 171.27709961 C-71.57498645 167.9750271 -71.57498645 167.9750271 -72.6875 165.75 C-72.80530399 164.16400853 -72.8619299 162.57329283 -72.88850403 160.9831543 C-72.90722061 159.97674393 -72.92593719 158.97033356 -72.94522095 157.9334259 C-72.96047821 156.82488754 -72.97573547 155.71634918 -72.99145508 154.57421875 C-73.01087662 153.40980759 -73.03029816 152.24539642 -73.05030823 151.04570007 C-73.21911417 140.28935878 -73.31734623 129.53191835 -73.39137745 118.77453613 C-73.44720437 110.82851968 -73.54178295 102.88494738 -73.68703538 94.94005299 C-73.7858172 89.34760066 -73.83816595 83.75581649 -73.85723227 78.16253185 C-73.86996292 74.82459379 -73.90923946 71.49231561 -73.98682594 68.15487671 C-74.47319458 46.21081214 -74.47319458 46.21081214 -70.07963562 40.94869995 C-67.26006073 38.3026547 -64.12379162 36.51641425 -60.6875 34.75 C-59.28454396 33.71865885 -57.89671762 32.66544455 -56.54296875 31.5703125 C-55.32232212 30.66914656 -54.09967226 29.77068751 -52.875 28.875 C-47.49790161 24.89258853 -42.20967504 20.82410488 -37 16.625 C-32.20563132 12.76831726 -27.41060523 8.91408353 -22.5625 5.125 C-21.54929687 4.32835937 -20.53609375 3.53171875 -19.4921875 2.7109375 C-13.11140718 -1.7502766 -7.31058876 -2.47816568 0 0 Z " fill="#0564EB" transform="translate(650.6875,295.25)"/>
<path d="M0 0 C6.48231177 2.91637748 11.64118852 8.24134621 16.8125 13 C17.45896484 13.59312988 18.10542969 14.18625977 18.77148438 14.79736328 C23.8568521 19.58975232 28.7783604 24.44741582 29.13701439 31.81434155 C29.14258669 32.96633195 29.14815899 34.11832235 29.15390015 35.30522156 C29.1582824 35.94734158 29.16266465 36.5894616 29.1671797 37.2510398 C29.18055318 39.40653929 29.1867433 41.5619979 29.19287109 43.7175293 C29.20077327 45.26162398 29.2090423 46.80571683 29.21765137 48.34980774 C29.24386041 53.4245935 29.25917895 58.49938745 29.2734375 63.57421875 C29.27879784 65.3221061 29.28417535 67.06999339 29.28956985 68.81788063 C29.31119789 76.08985396 29.32993369 83.36182509 29.34119225 90.63382244 C29.35742554 101.05008754 29.39058899 111.46597927 29.44759309 121.88210362 C29.48632007 129.20876782 29.50582826 136.53533228 29.51111281 143.86209613 C29.51476281 148.23653369 29.52674618 152.61057292 29.55921555 156.98489952 C29.58934457 161.1029804 29.59559107 165.22042296 29.58383179 169.33859062 C29.58361145 170.84622327 29.5918839 172.35388595 29.60948563 173.86141586 C29.69883001 181.95716057 29.71555008 188.72248426 24 195 C21.16015625 197.80078125 21.16015625 197.80078125 18.0625 200.3125 C17.49821289 200.77487061 16.93392578 201.23724121 16.35253906 201.71362305 C14.58010411 203.15782025 12.79350844 204.58208257 11 206 C10.44103027 206.44214844 9.88206055 206.88429688 9.30615234 207.33984375 C7.04726798 209.12105236 4.78428459 210.89677836 2.51391602 212.66333008 C-2.22701578 216.35968286 -6.87108111 220.16465461 -11.5 224 C-17.19134549 228.71315544 -22.93324992 233.34453269 -28.76171875 237.88671875 C-33.22089387 241.36854042 -37.61731546 244.92251244 -42 248.5 C-48.22374746 253.57858993 -54.50861673 258.57086982 -60.8359375 263.51953125 C-63.57269137 265.6607348 -66.29044988 267.82441659 -69 270 C-72.27171937 272.62696685 -75.56222248 275.22765351 -78.8671875 277.8125 C-85.31713534 282.85779254 -91.69331693 287.98540398 -98.03759766 293.1628418 C-102.88474081 297.11173814 -107.7832617 300.98830023 -112.7109375 304.8359375 C-117.86782109 308.87277397 -122.94383007 313.00534858 -128.01708984 317.14648438 C-133.06766479 321.26167662 -138.16772984 325.3087839 -143.30859375 329.31054688 C-146.01689298 331.42249311 -148.67208737 333.5715305 -151.2734375 335.8125 C-154 338 -154 338 -156 338 C-148.84430506 345.3942181 -141.02767468 352.02644304 -133.0390625 358.49609375 C-128.22187185 362.46501304 -123.53130205 366.57750053 -118.82421875 370.67578125 C-115.23232055 373.80292032 -111.61975649 376.90518766 -108 380 C-102.52513658 384.68357758 -97.07350272 389.39319655 -91.63623047 394.12036133 C-88.4311777 396.90409458 -85.21482169 399.67289722 -81.9765625 402.41796875 C-81.33009766 402.96710938 -80.68363281 403.51625 -80.01757812 404.08203125 C-78.78168995 405.13043174 -77.54350396 406.17613118 -76.30273438 407.21875 C-72.11095894 410.77808213 -72.11095894 410.77808213 -71 413 C-70.89500223 414.54241702 -70.85184024 416.08924122 -70.83937073 417.63517761 C-70.82430229 419.10081146 -70.82430229 419.10081146 -70.80892944 420.59605408 C-70.80309845 421.67190262 -70.79726746 422.74775116 -70.79125977 423.85620117 C-70.78147598 424.98641693 -70.7716922 426.11663269 -70.76161194 427.28109741 C-70.73160847 431.03504245 -70.71025806 434.78895172 -70.69140625 438.54296875 C-70.68483442 439.82320734 -70.6782626 441.10344593 -70.67149162 442.42247963 C-70.6455936 447.80374178 -70.62210493 453.18499066 -70.60699558 458.56629467 C-70.58510461 466.27223236 -70.54317231 473.97747186 -70.47355801 481.68313044 C-70.42054375 487.75825389 -70.4005052 493.83310198 -70.39179802 499.90844154 C-70.38323031 502.49004849 -70.36438025 505.07164256 -70.3350544 507.65309715 C-70.2961992 511.2682267 -70.29509883 514.88153785 -70.30297852 518.49682617 C-70.2729776 520.09541725 -70.2729776 520.09541725 -70.24237061 521.7263031 C-70.30187304 527.81082148 -71.05211402 531.25277004 -75.41407681 535.61948109 C-77.98918769 537.8610709 -80.57605455 540.01985191 -83.3125 542.0625 C-84.55361523 543.01232456 -85.7931269 543.96424715 -87.03125 544.91796875 C-88.00191406 545.66506104 -88.00191406 545.66506104 -88.9921875 546.42724609 C-92.49299029 549.16948485 -95.89591536 552.02909157 -99.3125 554.875 C-105.25076042 559.79685056 -111.2617965 564.60943063 -117.375 569.3125 C-118.45454956 570.1485376 -118.45454956 570.1485376 -119.5559082 571.00146484 C-120.22581787 571.51273926 -120.89572754 572.02401367 -121.5859375 572.55078125 C-122.46838135 573.22620972 -122.46838135 573.22620972 -123.36865234 573.9152832 C-127.25360906 576.49847127 -131.5100089 576.53587597 -136 576 C-144.18799072 573.13420325 -149.83565424 566.86200728 -156 561 C-159.69142026 557.67351102 -163.4718169 554.44985432 -167.25 551.22265625 C-168.45837948 550.19015817 -169.6667115 549.15760454 -170.875 548.125 C-171.4836792 547.60518555 -172.0923584 547.08537109 -172.71948242 546.54980469 C-176.25662058 543.52081344 -179.74409531 540.44835977 -183.1875 537.3125 C-187.42708043 533.46148995 -191.82932112 529.85156045 -196.28125 526.25 C-199.78050524 523.35406463 -203.12062616 520.30170044 -206.4765625 517.2421875 C-209.05082358 514.95484096 -211.69289489 512.78451729 -214.375 510.625 C-218.92780507 506.94428153 -223.23417411 503.07351352 -227.5168457 499.08862305 C-231.62414583 495.28935383 -235.91592043 491.76377951 -240.2734375 488.25390625 C-244.12155111 485.07287251 -247.78431482 481.70440386 -251.4609375 478.328125 C-261.65580328 468.9802173 -272.30682278 460.10846719 -282.875 451.1875 C-286.8727226 447.81257677 -290.84281332 444.41101624 -294.765625 440.94921875 C-296.64054909 439.31357693 -298.52715549 437.69459118 -300.421875 436.08203125 C-301.04070557 435.55472412 -301.65953613 435.02741699 -302.29711914 434.48413086 C-303.52656872 433.43759823 -304.75745103 432.39274562 -305.98999023 431.34985352 C-318.78455487 420.45051406 -318.78455487 420.45051406 -320 414 C-320.10005993 411.80923992 -320.14354904 409.61568797 -320.15390015 407.42266846 C-320.1582824 406.7633598 -320.16266465 406.10405115 -320.1671797 405.42476344 C-320.1805266 403.21709193 -320.18673725 401.0094603 -320.19287109 398.80175781 C-320.20077524 397.21810731 -320.20904439 395.6344586 -320.21765137 394.05081177 C-320.24383312 388.85160025 -320.25917417 383.65238083 -320.2734375 378.453125 C-320.27879857 376.66158798 -320.28417608 374.87005102 -320.28956985 373.0785141 C-320.31119204 365.62549664 -320.3299283 358.17248133 -320.34119225 350.71944046 C-320.3574301 340.04652137 -320.39061139 329.37396636 -320.44759309 318.70118451 C-320.48631538 311.19191143 -320.50582758 303.68273565 -320.51111281 296.17336535 C-320.51476284 291.69051756 -320.52674712 287.20805844 -320.55921555 282.72531891 C-320.58933701 278.50627373 -320.59559371 274.2878516 -320.58383179 270.06872177 C-320.5836114 268.52400004 -320.59188782 266.97924904 -320.60948563 265.43462753 C-320.71463095 255.67085584 -319.9374788 249.22966725 -313.09399414 241.98120117 C-312.49707764 241.50658447 -311.90016113 241.03196777 -311.28515625 240.54296875 C-310.60614258 239.99358643 -309.92712891 239.4442041 -309.22753906 238.87817383 C-308.51307617 238.32025146 -307.79861328 237.7623291 -307.0625 237.1875 C-306.31323242 236.58639404 -305.56396484 235.98528809 -304.79199219 235.3659668 C-302.53846791 233.56357725 -300.27202622 231.77898692 -298 230 C-297.35724121 229.49500977 -296.71448242 228.99001953 -296.05224609 228.46972656 C-293.71227046 226.63211503 -291.37133606 224.79584921 -289.02294922 222.96899414 C-285.15680989 219.95075061 -281.40587022 216.82276391 -277.6875 213.625 C-272.12750696 208.85233818 -266.35749667 204.40162594 -260.51513672 199.98144531 C-254.85018573 195.68354613 -249.31604924 191.24535705 -243.81591797 186.73925781 C-239.52462184 183.22674853 -235.18910335 179.78044732 -230.8125 176.375 C-226.28634443 172.8480759 -221.85995032 169.23031172 -217.5 165.5 C-212.57833496 161.28909312 -207.55204864 157.24438015 -202.44140625 153.265625 C-197.91296201 149.73463544 -193.44777321 146.13194742 -189 142.5 C-183.47674994 137.99222351 -177.90815183 133.55157061 -172.2890625 129.1640625 C-167.12398193 125.12080938 -162.04000757 120.98152753 -156.95874023 116.83374023 C-152.69689091 113.36106518 -148.39868899 109.94173694 -144.0625 106.5625 C-138.80244119 102.46061928 -133.637546 98.25416184 -128.5 94 C-122.78100065 89.26524525 -117.01597242 84.60447471 -111.16137695 80.03857422 C-106.97264951 76.77145043 -102.82526457 73.45634758 -98.6875 70.125 C-93.37458297 65.85320703 -87.99284243 61.68377513 -82.5625 57.5625 C-76.2117051 52.73987865 -69.9844471 47.78887441 -63.81323242 42.73901367 C-57.84341823 37.85636594 -51.7913357 33.08532036 -45.71337891 28.33837891 C-43.40812249 26.53766422 -41.10516943 24.7340327 -38.80371094 22.9284668 C-37.6475345 22.02145514 -36.49063854 21.11535988 -35.33300781 20.21020508 C-32.21606546 17.76685405 -29.12742816 15.29439934 -26.06640625 12.78125 C-25.40825928 12.2442749 -24.7501123 11.7072998 -24.07202148 11.15405273 C-22.81761687 10.12866544 -21.56801921 9.09735496 -20.32446289 8.05883789 C-14.3880525 3.2196513 -7.93876684 -1.39276611 0 0 Z " fill="#723DF8" transform="translate(517,175)"/>
<path d="M0 0 C2.71419397 1.02150028 4.53184142 2.61220924 6.74951172 4.47900391 C8.20164062 5.69716797 8.20164062 5.69716797 9.68310547 6.93994141 C14.53808125 11.08767864 19.35935676 15.27435132 24.17529297 19.46728516 C27.5924794 22.43780336 31.03793338 25.37291825 34.49951172 28.29150391 C44.50291199 36.72957993 54.42384536 45.2626309 64.30029297 53.84887695 C67.50546489 56.6328241 70.72201461 59.40175242 73.96044922 62.14697266 C74.60691406 62.69611328 75.25337891 63.24525391 75.91943359 63.81103516 C77.15532177 64.85943565 78.39350775 65.90513509 79.63427734 66.94775391 C83.82605278 70.50708603 83.82605278 70.50708603 84.93701172 72.72900391 C85.04200949 74.27142093 85.08517148 75.81824513 85.09764099 77.36418152 C85.11270943 78.82981537 85.11270943 78.82981537 85.12808228 80.32505798 C85.13391327 81.40090652 85.13974426 82.47675507 85.14575195 83.58520508 C85.15553574 84.71542084 85.16531952 85.8456366 85.17539978 87.01010132 C85.20540324 90.76404636 85.22675366 94.51795563 85.24560547 98.27197266 C85.2521773 99.55221125 85.25874912 100.83244984 85.2655201 102.15148354 C85.29141812 107.53274568 85.31490679 112.91399457 85.33001614 118.29529858 C85.35190711 126.00123627 85.39383941 133.70647576 85.46345371 141.41213435 C85.51646797 147.48725779 85.53650652 153.56210588 85.5452137 159.63744545 C85.5537814 162.21905239 85.57263147 164.80064647 85.60195732 167.38210106 C85.64081252 170.9972306 85.64191289 174.61054175 85.6340332 178.22583008 C85.66403412 179.82442116 85.66403412 179.82442116 85.69464111 181.45530701 C85.63513868 187.53982539 84.8848977 190.98177394 80.52293491 195.34848499 C77.94782402 197.59007481 75.36095717 199.74885582 72.62451172 201.79150391 C71.38339649 202.74132847 70.14388482 203.69325105 68.90576172 204.64697266 C68.25865234 205.14503418 67.61154297 205.6430957 66.94482422 206.15625 C63.44402143 208.89848876 60.04109636 211.75809548 56.62451172 214.60400391 C50.6862513 219.52585447 44.67521521 224.33843454 38.56201172 229.04150391 C37.84231201 229.5988623 37.1226123 230.1562207 36.38110352 230.73046875 C35.71119385 231.24174316 35.04128418 231.75301758 34.35107422 232.27978516 C33.76277832 232.7300708 33.17448242 233.18035645 32.56835938 233.64428711 C28.68340266 236.22747518 24.42700282 236.26487988 19.93701172 235.72900391 C11.749021 232.86320715 6.10135748 226.59101118 -0.06298828 220.72900391 C-3.75440854 217.40251493 -7.53480518 214.17885822 -11.31298828 210.95166016 C-12.52136776 209.91916207 -13.72969978 208.88660845 -14.93798828 207.85400391 C-15.54666748 207.33418945 -16.15534668 206.814375 -16.7824707 206.27880859 C-20.31960886 203.24981734 -23.80708359 200.17736368 -27.25048828 197.04150391 C-31.49006871 193.19049386 -35.8923094 189.58056435 -40.34423828 185.97900391 C-43.84349353 183.08306853 -47.18361444 180.03070435 -50.53955078 176.97119141 C-53.11381187 174.68384487 -55.75588318 172.5135212 -58.43798828 170.35400391 C-62.99079335 166.67328544 -67.29716239 162.80251742 -71.57983398 158.81762695 C-75.68713411 155.01835774 -79.97890871 151.49278342 -84.33642578 147.98291016 C-88.18453939 144.80187641 -91.8473031 141.43340776 -95.52392578 138.05712891 C-102.89475923 131.29864162 -110.55740092 124.86322101 -118.15478516 118.36230469 C-121.41741836 115.56969771 -124.67756525 112.77419061 -127.93798828 109.97900391 C-129.12287312 108.96336608 -130.30776791 107.94773987 -131.49267578 106.93212891 C-132.34087891 106.20509766 -133.18908203 105.47806641 -134.06298828 104.72900391 C-133.39138672 104.19404297 -132.71978516 103.65908203 -132.02783203 103.10791016 C-129.86686492 101.37401164 -127.71351172 99.63282506 -125.56689453 97.88134766 C-118.54597291 92.15318983 -111.49617638 86.47137752 -104.35424805 80.89477539 C-99.88007317 77.39239559 -95.46503589 73.82147954 -91.06298828 70.22900391 C-85.53959143 65.72140418 -79.97114392 61.28057749 -74.35205078 56.89306641 C-69.87861853 53.39123935 -65.46441274 49.82077711 -61.06298828 46.22900391 C-53.23954695 39.84746393 -45.31226763 33.60701281 -37.35400391 27.39501953 C-35.63102678 26.04925062 -33.90911679 24.70213619 -32.18798828 23.35400391 C-31.33684448 22.68739746 -31.33684448 22.68739746 -30.46850586 22.00732422 C-25.1404002 17.81877284 -19.88681432 13.53984936 -14.65527344 9.23144531 C-12.80345392 7.71450402 -10.93775952 6.21745562 -9.06298828 4.72900391 C-8.44020996 4.2246582 -7.81743164 3.7203125 -7.17578125 3.20068359 C-2.5893116 -0.34013442 -2.5893116 -0.34013442 0 0 Z " fill="#391BB7" transform="translate(361.06298828125,515.27099609375)"/>
<path d="M0 0 C0.66 0.33 1.32 0.66 2 1 C-2.69782416 6.93409367 -7.98649896 11.42451008 -14 16 C-14.66 15.67 -15.32 15.34 -16 15 C-14.93261837 11.79785512 -14.43506653 11.28971025 -11.875 9.3359375 C-11.25109375 8.85382813 -10.6271875 8.37171875 -9.984375 7.875 C-9.32953125 7.38 -8.6746875 6.885 -8 6.375 C-6.70806586 5.3831608 -5.41638595 4.39099034 -4.125 3.3984375 C-3.09375 2.60695313 -2.0625 1.81546875 -1 1 C-0.67 0.67 -0.34 0.34 0 0 Z " fill="#6A36F8" transform="translate(346,303)"/>
<path d="M0 0 C0.57234375 0.23589844 1.1446875 0.47179687 1.734375 0.71484375 C-1.03485351 3.79176432 -3.29412524 5.49284382 -7.265625 6.71484375 C-8.255625 6.71484375 -9.245625 6.71484375 -10.265625 6.71484375 C-9.03009224 5.51229851 -7.77660161 4.32818143 -6.515625 3.15234375 C-5.81953125 2.49105469 -5.1234375 1.82976562 -4.40625 1.1484375 C-2.265625 -0.28515625 -2.265625 -0.28515625 0 0 Z " fill="#612AF6" transform="translate(399.265625,262.28515625)"/>
<path d="M0 0 C0.66 0.33 1.32 0.66 2 1 C0.89300099 4.21029714 -0.01603825 5.00968977 -3 6.8125 C-3.99 7.204375 -4.98 7.59625 -6 8 C-6.66 7.67 -7.32 7.34 -8 7 C-5.36 4.69 -2.72 2.38 0 0 Z " fill="#602AF9" transform="translate(488,190)"/>
<path d="M0 0 C0.66 0.33 1.32 0.66 2 1 C0.35 2.98 -1.3 4.96 -3 7 C-4.32 6.67 -5.64 6.34 -7 6 C-4.69 4.02 -2.38 2.04 0 0 Z " fill="#602AF6" transform="translate(254,377)"/>
<path d="M0 0 C0.66 0.33 1.32 0.66 2 1 C0.02 3.31 -1.96 5.62 -4 8 C-5.32 7.67 -6.64 7.34 -8 7 C-5.36 4.69 -2.72 2.38 0 0 Z " fill="#5F2AF5" transform="translate(346,303)"/>
<path d="M0 0 C0.66 0.33 1.32 0.66 2 1 C-0.64 3.97 -3.28 6.94 -6 10 C-6.66 9.67 -7.32 9.34 -8 9 C-5.89851796 5.01824456 -3.63094642 2.64960955 0 0 Z " fill="#6430F6" transform="translate(214,409)"/>
<path d="M0 0 C-0.1875 1.875 -0.1875 1.875 -1 4 C-3.89111788 5.52164099 -5.71823412 6 -9 6 C-7.8803014 4.99406757 -6.7540588 3.9954151 -5.625 3 C-4.68527344 2.1646875 -4.68527344 2.1646875 -3.7265625 1.3125 C-2 0 -2 0 0 0 Z " fill="#0651E8" transform="translate(522,611)"/>
<path d="M0 0 C0.66 0.33 1.32 0.66 2 1 C-1.465 3.97 -1.465 3.97 -5 7 C-5.66 6.67 -6.32 6.34 -7 6 C-4.69 4.02 -2.38 2.04 0 0 Z " fill="#2D15AC" transform="translate(287,572)"/>
<path d="M0 0 C0.66 0 1.32 0 2 0 C1.75 2.375 1.75 2.375 1 5 C-1.0625 6.3125 -1.0625 6.3125 -3 7 C-2.01 4.69 -1.02 2.38 0 0 Z " fill="#2914B0" transform="translate(411,729)"/>
</svg>
